<svg width="22" height="26" viewBox="0 0 22 26" fill="none" xmlns="http://www.w3.org/2000/svg">
<path d="M16.0835 13.4042L19.3669 12.5249C19.5291 12.5223 19.6882 12.4625 19.8241 12.3528C19.96 12.2432 20.0664 12.0888 20.1299 11.9092C20.1935 11.7296 20.2112 11.533 20.1809 11.3442C20.1506 11.1555 20.0735 10.9832 19.9596 10.8493L14.1127 3.958C13.8725 3.67558 13.5461 3.51993 13.2041 3.5247L8.27406 3.59844C8.22014 3.60047 8.16845 3.6273 8.12984 3.67328C8.09123 3.71926 8.0687 3.78081 8.06699 3.84501C8.06671 3.87723 8.07176 3.90903 8.08187 3.93859C8.09197 3.96816 8.10693 3.99492 8.12588 4.01732L16.0835 13.4042Z" fill="#B8E0DD"/>
<path d="M18.6749 9.33731L21.0402 12.1228C21.1923 12.3027 21.2766 12.5489 21.2749 12.8074C21.2731 13.066 21.1853 13.3158 21.0308 13.5021L14.1966 21.5579C14.0757 21.7022 13.9327 21.8172 13.7757 21.8964C13.6187 21.9756 13.4509 22.0174 13.2819 22.0193L8.34267 22.091C8.3163 22.0914 8.29025 22.0857 8.26602 22.074C8.24178 22.0624 8.21984 22.0452 8.20144 22.0232C8.18303 22.0013 8.16853 21.9752 8.15876 21.9463C8.149 21.9175 8.14416 21.8864 8.14452 21.855C8.1445 21.8233 8.14989 21.7917 8.16033 21.7621C8.17078 21.7326 8.18608 21.7057 8.20532 21.6831L18.6749 9.33731Z" fill="#55C1B3"/>
</svg>
