<svg width="307" height="416" viewBox="0 0 307 416" fill="none" xmlns="http://www.w3.org/2000/svg">
<path fill-rule="evenodd" clip-rule="evenodd" d="M191.466 14.6968C153.859 21.8129 116.096 28.6166 78.1788 35.1089C77.8665 35.0804 77.6623 34.9444 77.5664 34.7007C91.7676 23.0392 106.056 11.4725 120.432 0C144.082 5.02793 167.76 9.92685 191.466 14.6968Z" fill="#DE48FD"/>
<path fill-rule="evenodd" clip-rule="evenodd" d="M190.65 15.9214C200.141 49.6035 209.53 83.2836 218.818 116.962C199.107 122.597 179.376 128.108 159.623 133.496C159.623 134.312 159.623 135.128 159.623 135.945C159.352 135.182 159.08 134.365 158.807 133.496C158.355 133.282 157.878 133.146 157.378 133.087C151.285 135.218 145.229 137.395 139.211 139.619C132.923 118.554 127.14 97.3251 121.86 75.9332C121.704 75.7062 121.5 75.5703 121.248 75.5249C119.452 67.2727 117.819 58.9715 116.349 50.6221C116.206 49.655 116.138 48.7021 116.145 47.7644C122.492 41.5668 128.956 35.5114 135.537 29.5975C153.85 24.7129 172.221 20.1541 190.65 15.9214Z" fill="#C7A98F"/>
<path fill-rule="evenodd" clip-rule="evenodd" d="M191.466 14.6968C191.688 14.7213 191.824 14.8572 191.874 15.105C191.425 15.381 191.016 15.6529 190.65 15.9215C172.221 20.1542 153.85 24.713 135.537 29.5977C128.956 35.5115 122.492 41.567 116.145 47.7645C116.138 48.7022 116.206 49.6551 116.349 50.6222C115.844 49.9225 115.572 49.106 115.533 48.1727C100.688 48.3544 85.8548 48.8308 71.0344 49.6016C65.9791 56.9247 61.0802 64.3412 56.3376 71.8509C37.7511 76.106 19.1761 80.4607 0.612365 84.9147C0.408244 84.8465 0.204122 84.7787 0 84.7105C0.734961 83.9708 1.41534 83.2225 2.04122 82.4652C27.0282 67.1352 51.7947 51.486 76.3415 35.5172C76.7498 35.2449 77.158 34.973 77.5663 34.7007C77.6622 34.9444 77.8663 35.0804 78.1786 35.109C116.096 28.6167 153.859 21.8129 191.466 14.6968Z" fill="#8F5CBB"/>
<path fill-rule="evenodd" clip-rule="evenodd" d="M76.3394 35.5171C51.7925 51.486 27.026 67.1352 2.03906 82.4651C16.5117 63.4312 31.0725 44.4478 45.7211 25.5151C56.046 28.4806 66.2521 31.8143 76.3394 35.5171Z" fill="#DE48FD"/>
<path fill-rule="evenodd" clip-rule="evenodd" d="M179.219 40.8244C172.692 41.4359 166.16 41.9805 159.623 42.4574C159.226 41.458 159.09 40.3692 159.215 39.1914C165.892 38.9187 172.56 38.5105 179.219 37.9667C179.219 38.9191 179.219 39.8719 179.219 40.8244Z" fill="#915FB8"/>
<path fill-rule="evenodd" clip-rule="evenodd" d="M149.418 42.8657C149.488 43.4054 149.352 43.8818 149.01 44.2945C144.802 45.2086 140.719 46.3656 136.763 47.7646C133.731 48.3186 130.737 48.9991 127.781 49.8058C127.781 48.717 127.781 47.6287 127.781 46.5399C134.595 44.9265 141.331 43.0212 147.989 40.8245C148.862 41.2041 149.339 41.8847 149.418 42.8657Z" fill="#915FB8"/>
<path fill-rule="evenodd" clip-rule="evenodd" d="M179.219 40.8245C178.105 41.1123 176.949 41.3846 175.749 41.6409C174.603 43.7948 173.582 45.972 172.687 48.1728C167.433 46.1043 164.575 47.8736 164.114 53.48C161.933 50.134 159.484 46.9363 156.766 43.8863C158.076 43.4156 159.437 43.1433 160.848 43.0698C160.343 42.9751 159.935 42.771 159.623 42.4574C166.161 41.9806 172.692 41.436 179.219 40.8245Z" fill="#BF9A81"/>
<path fill-rule="evenodd" clip-rule="evenodd" d="M149.415 42.8655C150.616 54.0946 151.636 65.3891 152.477 76.7497C149.892 71.5785 147.306 66.4077 144.721 61.2364C144.564 61.4634 144.36 61.5994 144.108 61.6447C145.183 57.552 143.686 54.9666 139.617 53.8881C140.047 53.9489 140.455 53.8811 140.842 53.6839C139.838 51.8791 138.885 50.042 137.984 48.1726C137.648 47.8109 137.239 47.675 136.76 47.7644C140.716 46.3654 144.799 45.2084 149.007 44.2943C149.349 43.8816 149.485 43.4052 149.415 42.8655Z" fill="#C09B7F"/>
<path fill-rule="evenodd" clip-rule="evenodd" d="M172.686 48.1726C176 51.2312 175.864 54.1571 172.278 56.9499C168.375 58.4416 165.654 57.285 164.113 53.4798C164.574 47.8734 167.432 46.1041 172.686 48.1726Z" fill="#4A3C58"/>
<path fill-rule="evenodd" clip-rule="evenodd" d="M116.346 50.6221C117.816 58.9715 119.449 67.2727 121.245 75.5249C122.02 78.8488 122.701 82.1826 123.286 85.5269C116.274 84.8325 109.334 83.6077 102.466 81.8527C98.9824 77.7592 95.4441 73.745 91.8512 69.8095C80.1444 70.4562 68.4413 71.1367 56.7422 71.8507C56.6063 71.8507 56.4699 71.8507 56.334 71.8507C61.0765 64.3411 65.9755 56.9245 71.0308 49.6015C85.8512 48.8307 100.684 48.3543 115.529 48.1726C115.568 49.1059 115.84 49.9223 116.346 50.6221Z" fill="#DE47FD"/>
<path fill-rule="evenodd" clip-rule="evenodd" d="M139.619 53.8883C143.688 54.9668 145.185 57.5522 144.11 61.6449C142.569 64.6349 140.119 65.7914 136.762 65.1149C133.451 63.4558 132.294 60.8023 133.292 57.1542C134.692 54.7186 136.802 53.6298 139.619 53.8883Z" fill="#493C58"/>
<path fill-rule="evenodd" clip-rule="evenodd" d="M91.8554 69.8096C87.4541 77.7266 83.0994 85.6874 78.7916 93.6918C84.5307 96.9696 90.3824 100.031 96.346 102.877C99.8651 110.595 103.267 118.351 106.552 126.147C93.9423 121.686 81.4227 117.059 68.9937 112.267C63.8715 102.77 58.7003 93.3126 53.4805 83.894C54.6778 79.9042 55.7666 75.8895 56.7464 71.8508C68.4455 71.1368 80.1486 70.4562 91.8554 69.8096Z" fill="#8E5CBB"/>
<path fill-rule="evenodd" clip-rule="evenodd" d="M169.826 73.8921C170.519 73.8268 171.2 73.8945 171.867 74.0962C168.812 77.492 165.682 80.8257 162.477 84.0982C159.485 82.6028 156.627 80.9016 153.904 78.9951C159.299 77.4781 164.606 75.7769 169.826 73.8921Z" fill="#8B6D5C"/>
<path fill-rule="evenodd" clip-rule="evenodd" d="M183.71 93.0796C178.399 94.4195 173.228 96.1202 168.197 98.1827C163.571 98.3186 158.943 98.4549 154.317 98.5909C153.415 98.6689 152.599 98.873 151.867 99.2033C151.174 99.2686 150.493 99.2008 149.826 98.9991C155.269 95.7332 160.713 92.4672 166.156 89.2013C172.995 89.8181 179.799 90.7706 186.568 92.059C185.626 92.4636 184.673 92.8036 183.71 93.0796Z" fill="#4A3C58"/>
<path fill-rule="evenodd" clip-rule="evenodd" d="M183.71 93.0795C178.017 96.5732 172.098 99.7028 165.952 102.469C161.272 101.282 156.578 100.194 151.867 99.2031C152.599 98.8729 153.415 98.6687 154.317 98.5908C158.943 98.4548 163.57 98.3185 168.197 98.1825C173.228 96.1201 178.399 94.4193 183.71 93.0795Z" fill="#A059A8"/>
<path fill-rule="evenodd" clip-rule="evenodd" d="M121.25 144.11C119.387 139.611 117.754 134.984 116.352 130.23C116.447 129.986 116.652 129.85 116.964 129.821C123.936 133.002 130.808 136.336 137.58 139.823C132.056 141.037 126.612 142.466 121.25 144.11Z" fill="#8A6B5B"/>
<path fill-rule="evenodd" clip-rule="evenodd" d="M91.8568 69.8096C95.4497 73.745 98.988 77.7593 102.471 81.8528C109.339 83.6078 116.28 84.8325 123.292 85.5269C122.706 82.1826 122.026 78.8489 121.25 75.525C121.502 75.5703 121.706 75.7062 121.863 75.9332C127.142 97.3252 132.926 118.554 139.213 139.619C145.231 137.395 151.287 135.218 157.38 133.087C157.88 133.147 158.357 133.282 158.809 133.496C159.082 134.366 159.354 135.182 159.625 135.945C160.508 138.858 161.188 141.852 161.666 144.926C161.991 147.076 162.672 149.117 163.708 151.05C163.493 151.333 163.221 151.537 162.891 151.662C162.984 151.825 163.121 151.893 163.299 151.867C163.365 152.56 163.297 153.241 163.095 153.908C158.196 160.712 153.297 167.516 148.398 174.32C148.065 174.86 147.589 175.132 146.97 175.136C140.782 172.111 134.659 168.981 128.599 165.747C127.733 163.764 126.985 161.723 126.353 159.623C125.922 158.491 125.309 157.539 124.516 156.765C124.689 156.453 124.825 156.113 124.924 155.745C123.574 151.896 122.349 148.018 121.25 144.11C126.612 142.465 132.056 141.037 137.58 139.823C130.808 136.336 123.936 133.002 116.964 129.821C116.651 129.85 116.447 129.986 116.351 130.23C113.214 128.637 109.948 127.276 106.554 126.147C103.269 118.351 99.8665 110.595 96.3474 102.877C90.3838 100.031 84.5321 96.9696 78.793 93.6918C83.1008 85.6874 87.4555 77.7266 91.8568 69.8096Z" fill="#C09B7E"/>
<path fill-rule="evenodd" clip-rule="evenodd" d="M95.9365 88.9972C97.1612 88.9972 98.386 88.9972 99.6107 88.9972C99.5013 91.3715 99.0931 93.6851 98.386 95.9373C94.2411 94.0688 90.1586 92.0958 86.1387 90.0178C89.4663 89.6761 92.7322 89.336 95.9365 88.9972Z" fill="#8C6C5B"/>
<path fill-rule="evenodd" clip-rule="evenodd" d="M161.666 144.926C169.346 146.762 177.103 148.395 184.936 149.825C185.088 151.406 185.496 152.903 186.161 154.316C185.906 154.486 185.77 154.759 185.752 155.132C188.032 166.995 190.21 178.834 192.284 190.65C192.512 192.697 192.784 194.739 193.101 196.773C192.423 195.969 191.743 195.153 191.06 194.324C188.911 194.997 186.734 195.541 184.528 195.957C184.255 194.732 183.983 193.507 183.711 192.283C186.076 191.544 188.526 190.932 191.06 190.446C190.344 187.654 189.596 184.864 188.814 182.077C185.902 182.053 182.976 182.053 180.037 182.077C178.186 176.795 176.417 171.488 174.73 166.155C174.322 166.019 173.913 165.883 173.505 165.747C172.157 166.106 170.796 166.378 169.423 166.563C169.712 166.194 170.12 166.058 170.647 166.155C168.657 161.493 166.548 156.866 164.32 152.275C164.046 151.968 163.706 151.831 163.299 151.867C163.12 151.893 162.984 151.825 162.891 151.662C163.221 151.537 163.493 151.333 163.707 151.05C162.672 149.117 161.991 147.076 161.666 144.926Z" fill="#497485"/>
<path fill-rule="evenodd" clip-rule="evenodd" d="M163.298 151.867C163.705 151.831 164.045 151.968 164.319 152.275C166.547 156.866 168.657 161.493 170.647 166.155C170.12 166.058 169.712 166.194 169.422 166.563C167.63 166.771 165.86 167.111 164.115 167.584C165.801 172.115 167.434 176.674 169.014 181.26C167.777 182.286 166.416 183.103 164.931 183.71C161.566 184.559 158.3 185.648 155.134 186.976C155.179 186.724 155.315 186.52 155.542 186.363C152.884 182.42 150.026 178.677 146.969 175.136C147.588 175.132 148.064 174.86 148.398 174.32C153.297 167.516 158.195 160.712 163.094 153.908C163.296 153.241 163.364 152.56 163.298 151.867Z" fill="#2E2C2C"/>
<path fill-rule="evenodd" clip-rule="evenodd" d="M186.158 154.316C197.457 166.703 208.615 179.223 219.634 191.874C211.277 191.081 202.908 190.401 194.527 189.833C193.59 189.852 192.842 190.124 192.282 190.65C190.207 178.834 188.03 166.995 185.75 155.132C185.768 154.758 185.903 154.486 186.158 154.316Z" fill="#2F2C2C"/>
<path fill-rule="evenodd" clip-rule="evenodd" d="M124.513 156.765C125.306 157.539 125.919 158.491 126.35 159.623C126.982 161.723 127.73 163.764 128.595 165.747C124.449 167.615 120.503 169.792 116.756 172.279C114.557 169.926 112.652 167.341 111.041 164.522C115.462 161.835 119.953 159.249 124.513 156.765Z" fill="#302D2E"/>
<path fill-rule="evenodd" clip-rule="evenodd" d="M111.044 164.522C112.654 167.341 114.56 169.926 116.759 172.279C121.899 179.968 127.342 187.453 133.089 194.732C139.149 192.395 145.272 190.217 151.46 188.2C154.377 196.479 157.507 204.644 160.849 212.695C160.849 213.647 160.849 214.6 160.849 215.553C145.532 213.008 130.155 210.831 114.718 209.021C107.768 199.618 100.964 190.093 94.3055 180.444C93.6658 179.308 92.9175 178.219 92.0602 177.178C91.6752 178.301 91.3352 179.389 91.0396 180.444C89.436 176.321 87.6671 172.239 85.7324 168.196C92.1492 164.444 98.6811 160.906 105.328 157.582C107.33 159.817 109.235 162.13 111.044 164.522Z" fill="#497585"/>
<path fill-rule="evenodd" clip-rule="evenodd" d="M128.593 165.747C134.653 168.981 140.777 172.111 146.964 175.137C150.021 178.677 152.879 182.42 155.537 186.363C155.31 186.52 155.174 186.724 155.129 186.976C153.975 187.571 152.75 187.979 151.455 188.2C145.267 190.217 139.144 192.395 133.084 194.732C127.337 187.453 121.894 179.968 116.754 172.279C120.5 169.792 124.446 167.615 128.593 165.747Z" fill="#181617"/>
<path fill-rule="evenodd" clip-rule="evenodd" d="M183.71 192.283C178.877 192.567 174.114 193.247 169.421 194.324C167.926 194.574 166.429 194.642 164.93 194.528C162.617 192.487 160.304 190.446 157.99 188.404C160.376 186.896 162.69 185.33 164.93 183.71C166.415 183.103 167.776 182.287 169.013 181.26C167.433 176.674 165.8 172.115 164.114 167.584C165.859 167.111 167.628 166.771 169.421 166.563C170.795 166.378 172.155 166.106 173.503 165.747C173.912 165.883 174.32 166.019 174.728 166.155C176.415 171.488 178.184 176.795 180.035 182.077C182.974 182.053 185.9 182.053 188.813 182.077C189.594 184.864 190.343 187.654 191.058 190.446C188.524 190.932 186.075 191.544 183.71 192.283Z" fill="#57A6FC"/>
<path fill-rule="evenodd" clip-rule="evenodd" d="M94.3024 180.444C97.9758 191.599 101.65 202.758 105.325 213.92C108.544 212.379 111.674 210.746 114.715 209.021C130.152 210.831 145.529 213.008 160.846 215.553C160.846 214.6 160.846 213.647 160.846 212.695C161.016 209.129 161.424 205.591 162.071 202.08C164.993 201.317 167.85 200.501 170.644 199.631C175.421 198.778 180.047 197.553 184.524 195.957C186.73 195.541 188.908 194.997 191.056 194.324C191.74 195.153 192.42 195.969 193.097 196.773C196.111 203.753 199.24 210.693 202.487 217.594C201.126 219.634 200.106 221.811 199.425 224.126C198.71 224.881 198.098 225.698 197.588 226.575C196.32 227.708 195.368 229.069 194.73 230.658C194.465 230.782 194.193 230.918 193.914 231.066C191.217 230.299 188.495 229.618 185.749 229.025C183.232 229.371 180.783 229.779 178.401 230.249C176.274 230.293 174.232 230.566 172.277 231.066C170.721 231.28 169.224 231.553 167.786 231.882C162.455 232.395 157.148 233.076 151.865 233.923C138.835 235.537 125.907 237.442 113.082 239.639C110.888 239.797 108.711 240.069 106.55 240.455C106.68 242.441 106.544 244.346 106.141 246.171C106.141 244.402 106.141 242.633 106.141 240.864C96.7363 241.92 87.3467 243.145 77.9727 244.538C82.4397 223.155 86.794 201.791 91.0364 180.444C91.332 179.389 91.6721 178.301 92.0571 177.178C92.9144 178.219 93.6627 179.307 94.3024 180.444Z" fill="#C7A98F"/>
<path fill-rule="evenodd" clip-rule="evenodd" d="M94.3047 180.443C100.964 190.092 107.767 199.618 114.717 209.021C111.676 210.746 108.546 212.379 105.327 213.919C101.652 202.758 97.9781 191.599 94.3047 180.443Z" fill="#BF9B7F"/>
<path fill-rule="evenodd" clip-rule="evenodd" d="M164.929 183.709C162.688 185.33 160.375 186.895 157.989 188.404C160.302 190.445 162.616 192.487 164.929 194.528C166.427 194.642 167.924 194.574 169.42 194.324C169.892 196.076 170.3 197.845 170.644 199.631C167.851 200.501 164.993 201.317 162.071 202.08C161.424 205.591 161.016 209.129 160.847 212.695C157.505 204.643 154.375 196.479 151.457 188.2C152.752 187.979 153.977 187.571 155.131 186.975C158.298 185.648 161.564 184.559 164.929 183.709Z" fill="#509A9C"/>
<path fill-rule="evenodd" clip-rule="evenodd" d="M219.636 191.874C220.377 192.688 221.058 193.572 221.677 194.528C220.53 196.347 219.441 198.185 218.411 200.039C211.879 209.565 205.347 219.091 198.815 228.616C198.31 228.018 197.902 227.338 197.59 226.575C198.1 225.698 198.712 224.881 199.427 224.126C200.108 221.811 201.129 219.634 202.489 217.594C199.243 210.693 196.113 203.753 193.1 196.773C192.783 194.739 192.511 192.697 192.283 190.65C192.843 190.124 193.592 189.852 194.529 189.833C202.91 190.401 211.279 191.081 219.636 191.874Z" fill="#191718"/>
<path fill-rule="evenodd" clip-rule="evenodd" d="M183.71 192.283C183.983 193.507 184.255 194.732 184.527 195.957C180.05 197.553 175.423 198.778 170.647 199.631C170.302 197.845 169.894 196.077 169.422 194.324C174.115 193.247 178.878 192.567 183.71 192.283Z" fill="#C8E4FB"/>
<path fill-rule="evenodd" clip-rule="evenodd" d="M236.168 198.815C236.372 199.835 236.168 198.815 236.372 198.815C238.688 198.921 241.001 199.057 243.312 199.223C243.584 199.223 243.856 199.223 244.129 199.223C248.189 199.675 252.271 200.083 256.376 200.448C259.509 200.521 262.639 200.657 265.765 200.856C267.924 201.2 270.101 201.336 272.297 201.264C279.023 202.033 285.827 202.577 292.71 202.897C294.808 203.3 296.986 203.436 299.241 203.305C301.747 203.802 304.333 204.143 306.998 204.326C301.226 214.033 295.511 223.763 289.852 233.515C288.427 235.817 286.999 238.13 285.565 240.455C285.263 240.965 285.331 241.374 285.769 241.68C285.08 242.008 284.4 242.417 283.728 242.905C281.602 246.681 279.425 250.423 277.196 254.132C277.289 254.294 277.426 254.362 277.605 254.336C271.69 264.258 265.77 274.192 259.846 284.137C241.581 276.465 223.278 268.981 204.937 261.684C199.368 259.349 193.789 256.968 188.199 254.54C190.367 251.765 192.272 248.839 193.915 245.763C196.374 242.482 198.687 239.08 200.855 235.556C207.654 225.501 214.457 215.432 221.267 205.346C222.846 202.942 224.479 200.56 226.166 198.202C227.647 198.247 229.144 198.315 230.657 198.406C229.745 198.354 230.051 199.753 230.452 198.202C230.452 199.835 231.065 196.773 231.065 198.406C232.717 198.363 234.35 198.499 235.964 198.815C236.071 194.775 235.964 200.039 236.168 198.815Z" fill="#4D4D4D"/>
<path fill-rule="evenodd" clip-rule="evenodd" d="M218.412 200.039C219.055 202.007 220.007 203.776 221.27 205.346C214.46 215.432 207.657 225.501 200.858 235.556C200.273 235.401 199.933 234.993 199.837 234.332C199.522 232.417 199.182 230.511 198.816 228.616C205.348 219.091 211.88 209.565 218.412 200.039Z" fill="#896B5B"/>
<path fill-rule="evenodd" clip-rule="evenodd" d="M272.708 207.388C273.641 208.364 274.321 209.521 274.75 210.858C274.324 212.908 273.1 213.589 271.076 212.899C270.243 211.93 269.291 211.113 268.218 210.449C265.881 209.211 263.432 208.327 260.869 207.796C257.468 207.099 254.066 206.827 250.663 206.979C248.876 205.935 248.604 204.574 249.847 202.897C256.575 201.862 263.107 202.61 269.443 205.142C270.629 205.799 271.718 206.547 272.708 207.388Z" fill="#EAE811"/>
<path fill-rule="evenodd" clip-rule="evenodd" d="M249.846 202.897C248.603 204.574 248.875 205.935 250.663 206.979C249.185 207.283 247.688 207.419 246.172 207.388C246.188 205.964 246.461 204.603 246.988 203.305C247.952 203.234 248.905 203.098 249.846 202.897Z" fill="#ECAA11"/>
<path fill-rule="evenodd" clip-rule="evenodd" d="M246.989 203.305C246.461 204.603 246.189 205.964 246.173 207.388C244.736 207.85 243.239 208.258 241.682 208.612C241.78 207.809 241.644 207.061 241.274 206.367C239.899 206.145 238.538 206.214 237.191 206.571C240.249 204.987 243.515 203.898 246.989 203.305Z" fill="#EC8C11"/>
<path fill-rule="evenodd" clip-rule="evenodd" d="M241.68 208.612C234.026 211.006 227.357 214.953 221.676 220.451C221.714 218.994 221.034 218.517 219.635 219.023C218.602 220.259 217.377 221.28 215.961 222.084C221.561 214.926 228.637 209.755 237.19 206.571C238.536 206.214 239.897 206.145 241.272 206.367C241.642 207.061 241.778 207.809 241.68 208.612Z" fill="#ED2815"/>
<path fill-rule="evenodd" clip-rule="evenodd" d="M272.708 207.388C277.145 210.134 279.867 214.08 280.873 219.227C280.628 217.951 280.152 217.815 279.444 218.819C279.308 220.316 279.172 221.812 279.036 223.309C278.275 224.414 277.254 224.755 275.974 224.33C275.467 223.313 274.99 222.293 274.545 221.268C274.348 221.655 274.28 222.063 274.341 222.493C272.71 215.009 268.22 210.11 260.869 207.796C263.432 208.327 265.881 209.211 268.218 210.45C269.29 211.113 270.243 211.93 271.075 212.899C273.099 213.589 274.324 212.908 274.749 210.858C274.321 209.521 273.641 208.364 272.708 207.388Z" fill="#70EC12"/>
<path fill-rule="evenodd" clip-rule="evenodd" d="M250.255 215.553C250.246 216.543 250.042 217.496 249.643 218.41C249.001 220.018 248.253 221.515 247.398 222.901C247.206 222.414 246.798 222.142 246.173 222.084C243.846 221.651 241.533 221.31 239.233 221.064C237.777 223.641 236.28 226.158 234.742 228.616C232.274 228.157 229.825 227.613 227.394 226.983C227.327 226.021 227.395 225.069 227.598 224.126C229.843 220.724 232.089 217.322 234.334 213.92C236.243 213.919 238.149 213.783 240.049 213.511C240.629 213.123 241.309 212.987 242.091 213.103C242.033 213.766 242.306 214.242 242.907 214.532C245.358 214.892 247.808 215.232 250.255 215.553Z" fill="#D1DEE7"/>
<path fill-rule="evenodd" clip-rule="evenodd" d="M240.047 213.511C240.65 213.404 241.194 213.54 241.68 213.92C241.408 214.056 241.136 214.192 240.863 214.328C240.368 214.227 240.096 213.955 240.047 213.511Z" fill="#3F4040"/>
<path fill-rule="evenodd" clip-rule="evenodd" d="M250.255 215.553C256.607 216.441 262.935 217.394 269.238 218.41C266.399 223.261 263.337 228.024 260.052 232.699C259.271 233.721 258.318 234.537 257.195 235.148C253.729 234.22 250.327 233.131 246.989 231.882C246.099 231.402 245.146 230.994 244.131 230.658C245.534 228.253 246.622 225.668 247.397 222.901C248.252 221.515 249 220.018 249.642 218.41C250.041 217.496 250.245 216.543 250.255 215.553Z" fill="#2C8BD7"/>
<path fill-rule="evenodd" clip-rule="evenodd" d="M221.673 220.451C219.914 222.555 218.213 224.732 216.57 226.983C214.525 230.473 213.096 234.147 212.284 238.006C211.833 239.324 211.492 240.957 211.263 242.905C210.494 243.752 209.609 243.889 208.609 243.313C208.249 241.969 207.977 240.609 207.793 239.231C208.771 232.648 211.493 226.933 215.958 222.084C217.374 221.28 218.599 220.259 219.632 219.023C221.031 218.517 221.711 218.994 221.673 220.451Z" fill="#EC11B5"/>
<path fill-rule="evenodd" clip-rule="evenodd" d="M247.396 222.901C246.621 225.668 245.533 228.253 244.13 230.658C241.347 230.233 238.557 229.825 235.761 229.433C235.199 229.358 234.859 229.085 234.74 228.616C236.278 226.158 237.775 223.641 239.231 221.064C241.531 221.31 243.844 221.651 246.171 222.084C246.796 222.142 247.204 222.414 247.396 222.901Z" fill="#6187A5"/>
<path fill-rule="evenodd" clip-rule="evenodd" d="M280.872 219.227C281.611 223.386 281.338 227.469 280.055 231.474C278.755 234.209 277.326 236.931 275.769 239.639C274.839 241.1 273.818 242.461 272.707 243.721C271.879 243.787 271.063 243.719 270.257 243.517C269.95 243.243 269.814 242.903 269.849 242.497C269.849 241.816 269.849 241.136 269.849 240.455C272.053 237.277 273.959 233.875 275.565 230.249C275.095 229.747 274.619 229.747 274.136 230.249C273.939 229.862 273.871 229.454 273.932 229.024C274.275 226.866 274.412 224.689 274.34 222.493C274.279 222.063 274.347 221.655 274.544 221.268C274.989 222.293 275.465 223.313 275.973 224.33C277.253 224.755 278.274 224.414 279.035 223.309C279.171 221.812 279.307 220.315 279.443 218.818C280.15 217.815 280.627 217.951 280.872 219.227Z" fill="#13EE2B"/>
<path fill-rule="evenodd" clip-rule="evenodd" d="M197.59 226.575C197.902 227.338 198.31 228.018 198.815 228.616C199.181 230.511 199.521 232.417 199.836 234.332C199.932 234.993 200.272 235.401 200.856 235.556C198.689 239.08 196.376 242.482 193.916 245.763C192.952 245.691 192 245.556 191.059 245.354C191.713 244.712 192.529 244.439 193.508 244.538C193.477 242.879 193.069 241.314 192.283 239.843C193.508 238.074 194.733 236.305 195.958 234.536C195.642 233.2 195.233 231.907 194.733 230.658C195.37 229.069 196.323 227.708 197.59 226.575Z" fill="#5AC0B3"/>
<path fill-rule="evenodd" clip-rule="evenodd" d="M227.392 226.983C229.823 227.612 232.272 228.157 234.74 228.616C234.859 229.085 235.199 229.358 235.761 229.433C238.557 229.825 241.347 230.233 244.129 230.658C245.145 230.994 246.098 231.402 246.987 231.882C243.85 235.565 240.857 239.376 238.006 243.313C237.564 243.329 237.155 243.465 236.781 243.721C230.795 241.318 224.671 239.412 218.41 238.006C220.836 234.012 223.354 230.066 225.963 226.167C226.253 226.768 226.729 227.041 227.392 226.983Z" fill="#363C41"/>
<path fill-rule="evenodd" clip-rule="evenodd" d="M194.734 230.658C195.235 231.907 195.643 233.2 195.959 234.536C194.734 236.305 193.509 238.074 192.285 239.843C193.07 241.314 193.478 242.879 193.509 244.538C192.53 244.439 191.714 244.712 191.06 245.354C190.006 245.548 189.189 245.276 188.61 244.538C188.324 243.338 187.916 242.181 187.386 241.068C185.429 240.553 183.592 239.805 181.874 238.822C181.06 235.974 180.312 233.117 179.629 230.249C179.221 230.249 178.813 230.249 178.404 230.249C180.786 229.779 183.236 229.371 185.753 229.025C188.499 229.618 191.22 230.299 193.918 231.066C194.196 230.918 194.469 230.782 194.734 230.658Z" fill="#C9E5FA"/>
<path fill-rule="evenodd" clip-rule="evenodd" d="M178.403 230.249C178.811 230.249 179.22 230.249 179.628 230.249C180.311 233.117 181.059 235.975 181.873 238.823C183.591 239.805 185.428 240.553 187.384 241.068C187.914 242.181 188.323 243.338 188.609 244.538C182.876 242.99 177.161 241.357 171.463 239.639C171.54 236.743 171.813 233.886 172.279 231.066C174.235 230.566 176.276 230.293 178.403 230.249Z" fill="#57BFB2"/>
<path fill-rule="evenodd" clip-rule="evenodd" d="M172.276 231.066C171.809 233.886 171.537 236.743 171.459 239.639C171.052 239.651 170.78 239.447 170.643 239.027C169.647 236.65 168.695 234.268 167.785 231.882C169.223 231.553 170.72 231.281 172.276 231.066Z" fill="#53A09F"/>
<path fill-rule="evenodd" clip-rule="evenodd" d="M273.934 229.025C273.873 229.454 273.941 229.862 274.138 230.249C274.621 229.747 275.097 229.747 275.567 230.249C273.961 233.875 272.056 237.277 269.852 240.455C269.603 240.092 269.467 239.683 269.443 239.231C271.496 236.031 272.992 232.629 273.934 229.025Z" fill="#16EB5F"/>
<path fill-rule="evenodd" clip-rule="evenodd" d="M246.989 231.882C250.327 233.131 253.729 234.22 257.195 235.148C258.319 234.537 259.272 233.721 260.053 232.699C257.33 237.586 254.473 242.349 251.48 246.987C251.079 247.249 250.671 247.521 250.255 247.804C246.07 246.455 241.987 244.959 238.008 243.313C240.859 239.376 243.852 235.565 246.989 231.882Z" fill="#0C395E"/>
<path fill-rule="evenodd" clip-rule="evenodd" d="M151.869 233.923C157.582 236 163.433 237.769 169.424 239.231C167.568 253.312 165.526 267.328 163.3 281.28C148.196 277.402 133.091 273.591 117.985 269.849C116.352 259.778 114.719 249.708 113.086 239.639C125.912 237.442 138.839 235.537 151.869 233.923Z" fill="#55C0B2"/>
<path fill-rule="evenodd" clip-rule="evenodd" d="M280.054 231.474C278.605 236.275 276.292 240.63 273.114 244.538C272.772 244.398 272.635 244.126 272.705 243.721C273.817 242.462 274.838 241.101 275.767 239.639C277.324 236.931 278.753 234.209 280.054 231.474Z" fill="#19E670"/>
<path fill-rule="evenodd" clip-rule="evenodd" d="M218.407 238.006C224.668 239.413 230.791 241.318 236.778 243.722C237.152 243.466 237.56 243.329 238.002 243.313C241.982 244.959 246.064 246.456 250.25 247.804C250.665 247.521 251.073 247.249 251.474 246.987C250.463 248.734 249.442 250.503 248.412 252.295C248.084 252.827 247.608 253.099 246.984 253.111C236.386 249.76 225.772 246.494 215.141 243.313C215.911 241.369 216.999 239.6 218.407 238.006Z" fill="#040E16"/>
<path fill-rule="evenodd" clip-rule="evenodd" d="M169.419 239.231C170.123 241.736 170.735 244.322 171.256 246.987C175.367 270.793 179.381 294.608 183.3 318.43C175.624 319.855 168.004 321.352 160.438 322.921C154.026 322.389 147.63 321.709 141.25 320.879C137.641 320.257 133.967 319.713 130.228 319.246C125.914 318.436 121.559 317.891 117.164 317.613C117.164 313.939 117.164 310.265 117.164 306.591C117.461 294.344 117.733 282.097 117.981 269.849C133.086 273.591 148.191 277.402 163.296 281.28C165.522 267.328 167.563 253.312 169.419 239.231Z" fill="#4F9A9C"/>
<path fill-rule="evenodd" clip-rule="evenodd" d="M167.789 231.882C168.698 234.268 169.651 236.65 170.646 239.027C170.784 239.447 171.056 239.651 171.463 239.639C177.161 241.357 182.876 242.99 188.609 244.538C189.188 245.276 190.004 245.548 191.059 245.354C192 245.556 192.952 245.692 193.916 245.763C192.273 248.839 190.368 251.765 188.201 254.54C193.791 256.968 199.37 259.349 204.939 261.684C206.288 279.113 207.785 296.532 209.43 313.939C205.588 314.334 201.778 314.947 197.999 315.776C197.768 316.183 197.495 316.523 197.182 316.797C196.795 316.531 196.319 316.394 195.753 316.389C191.586 316.995 187.436 317.676 183.302 318.43C179.383 294.608 175.369 270.793 171.259 246.987C170.737 244.322 170.125 241.737 169.422 239.231C163.431 237.769 157.58 236 151.867 233.924C157.151 233.076 162.458 232.395 167.789 231.882Z" fill="#497586"/>
<path fill-rule="evenodd" clip-rule="evenodd" d="M113.085 239.639C114.718 249.708 116.351 259.778 117.984 269.849C117.736 282.097 117.464 294.344 117.167 306.591C113.365 309.711 109.554 312.841 105.736 315.981C105.894 292.711 106.03 269.441 106.145 246.171C106.547 244.346 106.683 242.441 106.553 240.456C108.714 240.069 110.891 239.797 113.085 239.639Z" fill="#191718"/>
<path fill-rule="evenodd" clip-rule="evenodd" d="M269.442 239.231C269.465 239.683 269.601 240.092 269.85 240.455C269.85 241.136 269.85 241.816 269.85 242.497C269.528 242.044 269.324 241.5 269.238 240.864C267.736 242.984 266.035 244.617 264.135 245.762C265.916 243.575 267.685 241.398 269.442 239.231Z" fill="#18E59E"/>
<path fill-rule="evenodd" clip-rule="evenodd" d="M269.849 242.496C269.814 242.903 269.95 243.243 270.257 243.517C271.063 243.719 271.879 243.787 272.707 243.721C272.637 244.126 272.773 244.398 273.115 244.538C268.372 250.1 262.793 254.591 256.377 258.01C257.03 257.164 257.234 256.211 256.99 255.152C256.147 254.24 255.263 253.424 254.336 252.703C257.836 250.696 261.102 248.383 264.134 245.762C266.034 244.617 267.735 242.984 269.237 240.864C269.323 241.5 269.527 242.044 269.849 242.496Z" fill="#14E9E7"/>
<path fill-rule="evenodd" clip-rule="evenodd" d="M212.288 238.006C212.369 240.749 212.642 243.47 213.105 246.171C213.1 246.79 212.829 247.267 212.288 247.6C210.916 248.148 209.691 248.896 208.614 249.845C207.488 246.315 207.215 242.776 207.798 239.231C207.982 240.609 208.254 241.97 208.614 243.313C209.614 243.889 210.499 243.752 211.268 242.905C211.497 240.958 211.838 239.325 212.288 238.006Z" fill="#B212EA"/>
<path fill-rule="evenodd" clip-rule="evenodd" d="M213.104 246.171C213.805 247.706 214.621 249.203 215.553 250.661C214.636 250.492 213.751 250.22 212.9 249.845C211.183 250.265 210.639 251.353 211.267 253.111C212.034 253.938 212.51 254.891 212.696 255.969C210.829 254.28 209.468 252.239 208.613 249.845C209.69 248.896 210.915 248.148 212.287 247.6C212.828 247.267 213.099 246.79 213.104 246.171Z" fill="#8712EB"/>
<path fill-rule="evenodd" clip-rule="evenodd" d="M215.555 250.661C218.726 254.563 222.808 257.013 227.802 258.01C227.926 258.275 228.062 258.547 228.21 258.826C229.135 259.159 230.088 259.363 231.068 259.439C233.093 260.66 233.23 262.089 231.476 263.725C230.932 263.725 230.387 263.725 229.843 263.725C224.961 263.164 220.334 261.735 215.963 259.439C214.726 258.361 213.638 257.204 212.697 255.969C212.512 254.891 212.035 253.938 211.268 253.111C210.64 251.353 211.184 250.265 212.901 249.845C213.753 250.22 214.637 250.492 215.555 250.661Z" fill="#2412ED"/>
<path fill-rule="evenodd" clip-rule="evenodd" d="M254.336 252.703C255.263 253.424 256.147 254.24 256.99 255.152C257.235 256.212 257.031 257.164 256.377 258.01C252.669 259.727 248.859 261.224 244.946 262.501C244.472 260.61 244.404 258.705 244.742 256.785C248.064 255.765 251.262 254.404 254.336 252.703Z" fill="#12A8EB"/>
<path fill-rule="evenodd" clip-rule="evenodd" d="M242.088 257.193C242.769 257.193 243.449 257.193 244.129 257.193C244.129 258.962 244.129 260.732 244.129 262.501C243.057 262.742 241.968 262.878 240.863 262.909C240.689 261.144 240.553 259.374 240.455 257.602C241.108 257.711 241.652 257.575 242.088 257.193Z" fill="#DFE4ED"/>
<path fill-rule="evenodd" clip-rule="evenodd" d="M229.842 263.725C230.386 263.725 230.931 263.725 231.475 263.725C232.564 263.725 233.652 263.725 234.741 263.725C235.087 261.932 235.496 260.162 235.965 258.418C237.298 258.082 238.659 257.945 240.048 258.01C240.083 259.789 240.219 261.558 240.456 263.317C236.883 264.129 233.345 264.265 229.842 263.725Z" fill="#156EE8"/>
<path fill-rule="evenodd" clip-rule="evenodd" d="M242.494 257.602C243.275 258.901 243.547 260.398 243.311 262.092C242.727 262.06 242.182 262.196 241.678 262.5C241.274 261.028 241.137 259.531 241.269 258.01C241.796 258.107 242.205 257.971 242.494 257.602Z" fill="#218EEF"/>
<path fill-rule="evenodd" clip-rule="evenodd" d="M227.801 258.01C230.513 258.3 233.234 258.437 235.966 258.418C235.496 260.162 235.088 261.931 234.741 263.725C233.652 263.725 232.564 263.725 231.475 263.725C233.228 262.089 233.092 260.66 231.067 259.439C230.087 259.363 229.134 259.159 228.209 258.826C228.061 258.547 227.925 258.275 227.801 258.01Z" fill="#1256EF"/>
<path fill-rule="evenodd" clip-rule="evenodd" d="M117.165 306.591C117.165 310.265 117.165 313.939 117.165 317.613C121.56 317.891 125.914 318.436 130.228 319.246C124.405 323.797 118.553 328.356 112.674 332.923C118.954 340.241 125.281 347.521 131.657 354.764C131.814 354.537 132.018 354.401 132.27 354.355C131.299 358.242 130.21 362.055 129.004 365.786C129.057 365.484 128.989 365.211 128.8 364.97C116.491 370.444 104.244 376.025 92.0577 381.708C91.9719 382.344 91.7678 382.887 91.4453 383.341C95.6041 362.341 99.8906 341.385 104.305 320.471C104.861 318.972 105.337 317.475 105.734 315.98C109.552 312.841 113.362 309.711 117.165 306.591Z" fill="#2E2B2C"/>
<path fill-rule="evenodd" clip-rule="evenodd" d="M197.183 316.797C196.213 322.037 194.989 327.208 193.509 332.31C182.667 330.304 171.78 328.535 160.85 327.003C160.966 326.221 160.83 325.541 160.441 324.962C160.441 324.281 160.441 323.601 160.441 322.921C168.007 321.352 175.628 319.855 183.303 318.43C187.437 317.676 191.588 316.995 195.754 316.389C196.32 316.395 196.796 316.531 197.183 316.797Z" fill="#191718"/>
<path fill-rule="evenodd" clip-rule="evenodd" d="M130.23 319.247C133.969 319.713 137.644 320.257 141.253 320.88C138.134 331.994 135.14 343.153 132.271 354.356C132.02 354.401 131.815 354.537 131.659 354.764C125.283 347.522 118.955 340.241 112.676 332.923C118.555 328.356 124.407 323.797 130.23 319.247Z" fill="#181617"/>
<path fill-rule="evenodd" clip-rule="evenodd" d="M160.846 327.003C171.776 328.535 182.663 330.304 193.505 332.31C191.583 341.361 189.406 350.342 186.973 359.254C178.813 358.03 170.648 356.805 162.479 355.58C162.479 356.124 162.479 356.67 162.479 357.213C161.693 347.219 161.149 337.149 160.846 327.003Z" fill="#2E2B2B"/>
<path fill-rule="evenodd" clip-rule="evenodd" d="M160.441 324.962C160.83 325.541 160.966 326.221 160.85 327.003C161.153 337.149 161.697 347.219 162.483 357.213C162.461 360.895 162.598 364.57 162.891 368.236C162.596 368.064 162.392 367.795 162.279 367.419C161.53 353.271 160.918 339.119 160.441 324.962Z" fill="#D3CDD8"/>
<path fill-rule="evenodd" clip-rule="evenodd" d="M186.975 359.254C186.865 360.022 187.137 360.565 187.792 360.887C187.082 362.075 186.129 363.096 184.934 363.949C179.511 367.876 174.203 371.959 169.013 376.196C167.833 376.78 166.744 377.393 165.747 378.033C164.93 378.033 164.114 378.033 163.297 378.033C163.161 374.768 163.025 371.502 162.889 368.236C162.596 364.57 162.459 360.895 162.481 357.213C162.481 356.67 162.481 356.124 162.481 355.58C170.65 356.805 178.815 358.03 186.975 359.254Z" fill="#181617"/>
<path fill-rule="evenodd" clip-rule="evenodd" d="M187.793 360.887C194.308 362.741 200.703 364.917 206.981 367.419C206.968 367.828 207.173 368.097 207.593 368.236C210.105 369.097 212.623 369.914 215.146 370.685C215.846 370.738 216.527 370.873 217.187 371.094C218.322 371.677 219.547 372.155 220.861 372.522C220.725 372.657 220.589 372.796 220.453 372.931C217.434 373.139 214.44 373.478 211.471 373.951C204.786 374.339 198.118 374.882 191.467 375.584C188.194 375.539 184.928 375.674 181.67 375.992C180.669 376.009 179.852 376.282 179.22 376.809C174.734 377.27 170.243 377.679 165.748 378.034C166.746 377.393 167.834 376.78 169.014 376.197C174.205 371.959 179.512 367.877 184.935 363.949C186.131 363.096 187.083 362.075 187.793 360.887Z" fill="#302C2E"/>
<path fill-rule="evenodd" clip-rule="evenodd" d="M129.006 365.786C125.593 379.438 122.055 393.045 118.392 406.611C117.334 406.353 116.382 405.876 115.534 405.182C107.369 399.466 99.2041 393.751 91.0392 388.035C90.3485 387.501 89.8043 386.888 89.4062 386.198C89.7275 385.545 90.2717 385.272 91.0392 385.382C90.9233 384.602 91.0592 383.92 91.4475 383.341C91.77 382.888 91.9741 382.345 92.0598 381.708C104.246 376.025 116.493 370.444 128.802 364.97C128.991 365.211 129.059 365.484 129.006 365.786Z" fill="#181617"/>
<path fill-rule="evenodd" clip-rule="evenodd" d="M206.981 367.419C209.499 368.191 212.017 369.007 214.533 369.869C214.954 370.007 215.158 370.277 215.146 370.685C212.623 369.913 210.105 369.097 207.593 368.236C207.173 368.097 206.969 367.827 206.981 367.419Z" fill="#786985"/>
<path fill-rule="evenodd" clip-rule="evenodd" d="M191.466 375.584C187.46 376.164 183.377 376.572 179.219 376.809C179.851 376.282 180.667 376.009 181.668 375.992C184.927 375.674 188.193 375.539 191.466 375.584Z" fill="#695C75"/>
<path fill-rule="evenodd" clip-rule="evenodd" d="M89.4035 386.198C89.8015 386.888 90.3457 387.501 91.0365 388.036C99.2013 393.751 107.366 399.466 115.531 405.182C116.379 405.876 117.331 406.353 118.389 406.611C118.207 407.729 117.799 408.75 117.164 409.672C109.021 411.35 100.924 413.187 92.8736 415.184C81.1684 412.138 69.5335 408.872 57.9688 405.386C68.2393 398.683 78.7177 392.289 89.4035 386.198Z" fill="#2F2C2D"/>
</svg>
