<svg width="125" height="90" viewBox="0 0 125 90" fill="none" xmlns="http://www.w3.org/2000/svg">
<path d="M18.5753 16.1057L6.19569 7.59853C5.69273 7.09074 5.05065 6.74471 4.35091 6.60473C3.65117 6.46475 2.9255 6.53699 2.26692 6.81243C1.60833 7.08787 1.04645 7.55388 0.652946 8.15108C0.259445 8.74829 0.0523348 9.44977 0.0577196 10.1657L0.241189 47.0039C0.247526 48.5139 0.844941 49.961 1.90474 51.0331L17.256 66.4359C17.3392 66.5205 17.4383 66.5877 17.5476 66.6335C17.6569 66.6793 17.7742 66.7029 17.8927 66.7029C18.0111 66.7029 18.1284 66.6793 18.2377 66.6335C18.347 66.5877 18.4461 66.5205 18.5293 66.4359C18.6155 66.3527 18.6836 66.2526 18.729 66.1416C18.7745 66.0306 18.7965 65.9111 18.7935 65.7912L18.5753 16.1057Z" fill="#B8E0DD"/>
<path d="M0.080464 18.5228L7.346e-05 3.63767C-0.00294951 3.16297 0.0873555 2.69236 0.265614 2.25264C0.443873 1.81292 0.706587 1.41283 1.03899 1.07503C1.37139 0.737228 1.76689 0.468312 2.20283 0.283864C2.63877 0.0994156 3.10673 0.00301393 3.57983 0L45.3879 0.207136C46.8945 0.216557 48.3369 0.820233 49.4036 1.88783L64.7775 17.3255C64.9442 17.4938 65.038 17.7215 65.038 17.9587C65.038 18.196 64.9442 18.4234 64.7775 18.5917C64.6059 18.752 64.3808 18.8426 64.1464 18.8452L0.080464 18.5228Z" fill="#55C1B3"/>
<path d="M18.5637 18.6039L0.12625 26.547L0.0917969 18.5117L18.5637 18.6039Z" fill="#79CABD"/>
<path d="M106.448 74.2981L118.816 82.3564C119.321 82.8632 119.965 83.2079 120.666 83.3466C121.367 83.4853 122.093 83.4116 122.752 83.1352C123.411 82.8588 123.974 82.3922 124.368 81.7943C124.762 81.1965 124.97 80.4946 124.966 79.7778L124.782 42.9396C124.773 41.4279 124.171 39.9806 123.107 38.9104L107.756 23.4957C107.585 23.3304 107.357 23.2383 107.119 23.2383C106.882 23.2383 106.654 23.3304 106.483 23.4957C106.399 23.5805 106.332 23.6811 106.287 23.7917C106.241 23.9023 106.218 24.0209 106.219 24.1405L106.448 74.2981Z" fill="#B8E0DD"/>
<path d="M124.92 71.4669L125 86.3633C125.003 87.323 124.627 88.2449 123.954 88.9268C123.281 89.6087 122.366 89.9949 121.409 90.001L79.5898 89.7823C78.0889 89.7729 76.6514 89.1737 75.5857 88.1131L60.2115 72.6642C60.1293 72.5819 60.0642 72.484 60.0197 72.3764C59.9752 72.2687 59.9521 72.1531 59.9521 72.0366C59.9521 71.92 59.9752 71.8047 60.0197 71.6971C60.0642 71.5894 60.1293 71.4916 60.2115 71.4093C60.3786 71.2407 60.6056 71.1455 60.8426 71.1445L124.92 71.4669Z" fill="#55C1B3"/>
<path d="M106.448 71.3845L124.885 63.4414L124.92 71.4767L106.448 71.3845Z" fill="#79CABD"/>
<path d="M41.3489 43.6514L40.5803 33.1296L37.2988 43.1449H34.614L31.3214 33.1065L30.5413 43.6514H27.5352L28.625 28.375H31.6771H32.4112L35.968 39.1733L39.4901 28.375H40.2245H43.2533L44.4006 43.6514H41.3489Z" fill="white"/>
<path d="M46.707 28.375H49.977V43.6514H46.707V28.375Z" fill="white"/>
<path d="M52.1111 35.9849C52.0747 34.9393 52.2521 33.8973 52.6321 32.9231C53.0121 31.9488 53.5871 31.063 54.3211 30.3199C55.0552 29.5769 55.933 28.9925 56.9006 28.6027C57.8682 28.2129 58.905 28.0259 59.9473 28.0532C61.5164 27.987 63.064 28.4385 64.3529 29.3388C65.6417 30.2391 66.6008 31.5383 67.0836 33.0377L63.9515 34.3157C63.7606 33.385 63.2438 32.5537 62.4944 31.9728C61.745 31.392 60.8126 31.1001 59.867 31.1499C57.2626 31.1499 55.4155 33.0838 55.4155 35.9849C55.3607 36.6023 55.4358 37.2245 55.6362 37.8109C55.8366 38.3972 56.1576 38.9346 56.5785 39.3884C56.9994 39.8422 57.5108 40.2023 58.0793 40.4449C58.6478 40.6875 59.2607 40.8073 59.8784 40.7968C60.8238 40.851 61.7567 40.5604 62.5053 39.9786C63.2538 39.3968 63.7675 38.563 63.9515 37.631L67.0836 38.9089C66.6049 40.4155 65.6434 41.721 64.3487 42.6225C63.0539 43.524 61.4984 43.971 59.9244 43.8937C58.8855 43.9194 57.8524 43.7318 56.8883 43.3425C55.9242 42.9533 55.0496 42.3703 54.3181 41.6298C53.5865 40.8893 53.0132 40.0067 52.6338 39.036C52.2543 38.0653 52.0764 37.027 52.1111 35.9849Z" fill="white"/>
<path d="M72.6715 37.3889H72.0404V43.6514H68.8164V28.375H75.0236C78.2934 28.375 80.347 30.2747 80.347 32.8879C80.347 35.1903 78.7064 36.9514 76.079 37.3198L80.6108 43.6514H76.9969L72.6715 37.3889ZM72.0404 35.0866H74.9432C76.3658 35.0866 77.1804 34.3384 77.1804 33.1757C77.1804 32.013 76.3658 31.2415 74.9432 31.2415H72.0289L72.0404 35.0866Z" fill="white"/>
<path d="M82.4002 39.853C79.7958 33.6136 83.8687 28.0991 89.5365 28.0991C90.5807 28.0788 91.6183 28.2702 92.5871 28.6615C93.556 29.0528 94.4363 29.636 95.1753 30.3765C95.9143 31.1169 96.4968 31.9993 96.8882 32.9709C97.2795 33.9425 97.4716 34.9833 97.4528 36.031C97.4528 41.787 91.7164 45.8162 85.5094 43.0304C84.1084 42.4059 82.9968 41.2699 82.4002 39.853ZM94.1487 36.008C94.1038 35.1084 93.7969 34.2417 93.2661 33.5153C92.7353 32.7889 92.004 32.2349 91.1625 31.9214C90.321 31.608 89.4063 31.5489 88.5317 31.7517C87.6571 31.9545 86.8609 32.4103 86.2419 33.0625C85.6228 33.7147 85.2079 34.5347 85.0486 35.4211C84.8893 36.3075 84.9927 37.2214 85.3458 38.0495C85.6989 38.8776 86.2862 39.5836 87.0351 40.0801C87.7841 40.5767 88.6618 40.8418 89.5595 40.8429C90.1868 40.8609 90.8108 40.7465 91.3911 40.5068C91.9714 40.267 92.4949 39.9074 92.9277 39.4514C93.3605 38.9954 93.693 38.4533 93.9033 37.8601C94.1137 37.2668 94.1972 36.6357 94.1487 36.008Z" fill="white"/>
<path d="M36.9089 50.9531V61.7512H35.6011V56.7091H30.1398V61.7054H28.832V50.9531H30.1398V55.5579H35.6011V50.9531H36.9089Z" fill="white"/>
<path d="M54.9905 58.6428H50.4012L49.2539 61.7398H47.9346L51.8353 50.9414H53.4303L57.331 61.7398H56.0347L54.9905 58.6428ZM54.5891 57.5608L52.7073 52.3458L50.8373 57.5492L54.5891 57.5608Z" fill="white"/>
<path d="M67.5655 56.3413C67.5261 55.6172 67.6353 54.8928 67.8865 54.2129C68.1377 53.5329 68.5255 52.9117 69.0257 52.3883C69.5259 51.8648 70.1277 51.45 70.7943 51.1696C71.4608 50.8892 72.1777 50.7492 72.9004 50.7581C73.9777 50.7131 75.0395 51.0276 75.9197 51.6525C76.7998 52.2773 77.4488 53.1774 77.765 54.2117L76.4913 54.7412C76.2892 53.947 75.8208 53.2469 75.1648 52.7584C74.5087 52.2699 73.7051 52.0228 72.8889 52.0589C71.7877 52.116 70.7505 52.5953 69.9912 53.3975C69.2319 54.1998 68.8086 55.2639 68.8086 56.3702C68.8086 57.4766 69.2319 58.5407 69.9912 59.3429C70.7505 60.1452 71.7877 60.6242 72.8889 60.6813C73.7032 60.7135 74.5038 60.4634 75.1558 59.9728C75.8078 59.4821 76.2712 58.7811 76.4684 57.9877L77.7305 58.5172C77.4308 59.5501 76.7939 60.4519 75.9222 61.0781C75.0504 61.7044 73.9944 62.0188 72.9234 61.9708C72.1951 61.9816 71.4724 61.8414 70.8007 61.559C70.129 61.2766 69.5225 60.8582 69.0195 60.3297C68.5165 59.8012 68.1278 59.1739 67.8775 58.4877C67.6273 57.8014 67.5212 57.0707 67.5655 56.3413Z" fill="white"/>
<path d="M95.8464 61.7284L90.4426 56.4443V61.7284H89.123V50.9531H90.4426V55.7996L95.4218 50.9531H96.9823L91.8194 56.0989L97.4411 61.7512L95.8464 61.7284Z" fill="white"/>
</svg>
